<?xml version="1.0" encoding="UTF-8"?> <svg xmlns="http://www.w3.org/2000/svg" xmlns:xlink="http://www.w3.org/1999/xlink" xml:space="preserve" width="4.24874in" height="4.92126in" version="1.1" style="shape-rendering:geometricPrecision; text-rendering:geometricPrecision; image-rendering:optimizeQuality; fill-rule:evenodd; clip-rule:evenodd" viewBox="0 0 4249 4921"> <defs> <style type="text/css"> .fil2 {fill:#154E9E} .fil0 {fill:#281E39} .fil1 {fill:#CAA856} </style> </defs> <g id="Layer_x0020_1"> <metadata id="CorelCorpID_0Corel-Layer"></metadata> <g id="_618884000"> <path class="fil0" d="M0 2104l0 -2104 2044 0 0 1019 -997 0c0,393 0,679 0,1072 0,5 0,9 0,13l-1047 0zm739 -1310c-118,83 -217,188 -306,301l-109 117c-25,16 -56,1 -77,-18 -77,-71 59,-346 72,-459 5,-43 1,-94 -18,-136 -26,-59 -78,-103 -132,-107 -74,-5 -56,59 -5,72 31,8 62,24 88,52 21,21 27,66 23,117 -8,140 -91,256 -106,395 -11,97 10,105 78,139 132,64 178,-96 302,-115 -18,149 -219,248 -126,374 26,36 36,108 29,152 -9,60 -45,89 -49,124 -5,47 31,67 69,37 19,-15 29,-39 36,-65 29,-99 29,-198 23,-301 148,-137 272,-239 275,-440 41,-90 349,-124 391,-236 -86,-5 -169,8 -249,16 79,-21 143,-23 225,-29 183,-13 375,-11 527,-97 49,-28 25,-94 -22,-71 -23,11 -50,33 -76,39 -130,32 -431,-54 -483,-150 39,29 138,95 225,115 -21,-241 -126,-247 -235,-353 23,13 56,41 86,57 41,-25 76,-55 62,-106 -31,-114 -246,-143 -331,14 -29,54 -23,93 -41,147l-104 -103c31,3 76,19 99,11 32,-27 2,-61 -41,-90 -31,-21 -56,-27 -86,-53 -89,32 -11,25 -156,5 -64,-8 -127,-14 -140,46 69,-33 149,-12 180,44 -86,172 70,460 102,555zm629 -275c15,-2 30,-2 45,-1 0,34 1,68 5,102 -19,-5 -38,-11 -56,-20 1,-27 5,-54 6,-81zm-202 476c32,-3 39,-23 57,-39l98 -105c8,-9 39,-41 48,-58 -26,3 -53,6 -80,7 -6,7 -12,13 -17,17 -76,61 -119,-8 -118,86 0,15 9,76 12,92zm-502 432c78,4 265,-165 357,-203l-19 -46c-35,18 -54,37 -97,51 -114,36 -56,-33 -180,110 -40,45 -58,55 -61,88z"></path> <path class="fil1" d="M2044 4921c-1393,-337 -2031,-1377 -2044,-2657l1052 0c42,686 351,1048 992,1274l0 1383zm-1135 -2092c-190,6 -304,333 -266,349l266 0 164 0c14,-46 47,-83 90,-103 -38,-101 -129,-242 -254,-246zm588 813l-548 0 -536 0c62,114 133,223 213,324l10 0 0 -27 -21 0c6,-71 55,-127 114,-127 66,0 109,66 113,127l-21 0 0 27 22 0 73 0 33 0 32 0 73 0 22 0 0 -27 -21 0c5,-71 54,-127 114,-127 66,0 108,66 113,127l-21 0 0 27 22 0 214 0 22 0 0 -27 -22 0 0 -297zm-654 561l0 -213 106 0 105 0 0 391c-74,-55 -145,-115 -211,-178zm440 -213l0 541c19,11 38,22 58,33l156 0 72 0 0 -21 -72 0 0 -553 -214 0zm214 625l46 0 0 -41 -46 0 -137 0c26,14 53,28 80,41l57 0zm-431 -1071l1 -333 -596 0 0 333 -108 0c4,10 9,19 13,28l24 0 1135 0c0,-9 0,-18 0,-28l-115 0 0 -329 -30 0 0 329 -63 0 0 -322c0,-54 -44,-99 -99,-99 -54,0 -99,45 -99,99l0 322 -63 0zm469 74l-237 0c-299,0 -599,0 -898,0 -5,-10 -10,-20 -15,-30l20 0 1129 0 1 0 0 30z"></path> <path class="fil0" d="M4248 2264c-12,1280 -650,2320 -2044,2657l0 -1383c642,-226 950,-588 993,-1274l1051 0zm-1276 1345c56,63 105,160 105,275 27,-11 28,-30 27,-43 0,-34 25,-31 27,-12 1,13 -6,30 -14,42 -47,68 -87,107 -189,160 1,-158 62,-241 44,-422zm438 -208c-1,4 -6,6 -10,4 -3,-1 -5,-5 -4,-9 7,-18 13,-31 19,-42 7,-13 11,-23 14,-37 3,-15 1,-32 2,-47 0,-7 3,-49 18,-42 6,3 3,39 2,46 0,15 0,30 -6,46 -3,16 -9,27 -17,41 -5,11 -12,23 -18,40zm-233 487c6,-2 13,2 16,8 2,7 -2,14 -9,16 -18,6 -30,13 -42,21 -11,6 -22,13 -37,20 -7,2 -14,-1 -17,-7 -3,-7 0,-14 6,-17 15,-6 25,-12 34,-18 14,-9 27,-16 49,-23zm110 -208c-4,-134 51,-215 48,-315 68,53 27,285 -48,315zm-427 402c-12,4 -23,10 -37,15 -55,18 -11,37 20,27 123,-38 171,-162 352,-155 72,181 345,115 302,-69 106,-20 135,-51 189,-70 -143,-33 -422,4 -532,28 117,-161 265,-229 361,-283 100,-56 274,-205 306,-315 -214,-1 -338,226 -437,281 55,-276 359,-328 457,-451l-215 17c40,-129 65,-200 23,-353 -95,61 -156,315 -185,381 0,-109 19,-349 -53,-412 -108,303 -80,424 -65,587 -37,-60 -34,-152 -166,-170 8,-81 12,-138 -45,-182 -153,334 98,536 112,756 -15,-26 -25,-97 -59,-134 -25,-29 -65,-37 -121,-6 -22,-39 -73,-246 -167,-318 -21,95 51,265 62,305 -146,151 -42,338 -69,500 -51,-117 -16,-480 -101,-572 -91,196 -19,377 68,593z"></path> <path class="fil1" d="M2204 0l2045 0 0 2104 -1047 0c0,-4 0,-8 0,-13 0,-393 0,-679 0,-1072l-998 0 0 -1019zm1038 1003c24,20 39,23 79,24 14,-26 81,-138 103,-152 25,33 15,157 25,205 13,54 50,66 66,11 19,-69 2,-197 22,-217 12,99 10,206 21,307 5,44 27,108 52,31 30,-93 45,-327 51,-423 14,140 5,469 8,511 7,82 34,73 50,10 21,-90 50,-254 65,-350 11,78 5,171 6,256 1,57 -3,132 -1,192 1,50 12,111 43,36 40,-99 49,-364 62,-421 1,123 -32,402 -11,503 16,77 50,89 66,0 25,-133 24,-362 46,-468 -1,89 -32,611 87,623 -41,-450 55,-656 36,-840 -9,-82 -21,-128 -112,-125 -47,2 -114,16 -137,-21 -21,-42 9,-105 39,-130 58,-47 99,26 124,49 31,-46 19,-147 -15,-186 -53,-60 -121,-15 -179,0 18,-57 65,-123 7,-179 -38,-35 -138,-50 -185,-21 21,26 93,69 44,125 -26,29 -90,57 -131,34 -37,-24 -20,-90 -16,-138 6,-90 -39,-104 -121,-116 -183,-26 -393,62 -840,5 7,119 530,108 619,110 -107,18 -336,9 -469,28 -90,13 -79,47 -3,66 100,25 380,3 502,8 -57,11 -322,10 -423,47 -75,28 -14,41 35,44 60,4 135,3 192,6 85,4 178,2 256,16 -97,11 -262,33 -352,52 -64,13 -74,40 8,49 41,5 371,9 510,28 -96,2 -331,8 -424,35 -78,22 -15,46 29,53 99,14 207,17 306,33 -21,19 -149,-3 -219,14 -55,13 -44,51 10,65 47,13 171,8 203,34 -15,20 -129,84 -156,96 0,41 2,56 22,81z"></path> <path class="fil2" d="M2124 3396c606,-206 870,-520 912,-1122l-147 0 0 0c-64,2 -128,-24 -181,-81 -109,110 -266,110 -374,-9 -111,123 -274,119 -383,0 -105,116 -261,122 -372,10 -52,55 -114,82 -177,81l0 0 -189 0c42,601 306,915 911,1121zm-175 -700c107,136 277,140 387,0 96,131 242,138 315,0 -105,0 -210,0 -315,0 -129,0 -258,0 -387,0 -96,131 -242,138 -315,0 105,0 210,0 315,0zm581 -236c95,132 242,138 315,0 -105,0 -210,0 -315,0 -129,0 -258,0 -387,0 -108,136 -278,140 -388,0 -95,132 -242,138 -315,0 105,0 210,0 315,0 129,0 258,0 388,0 107,136 277,140 387,0zm512 -393l0 -888 -1835 0 0 908c82,-29 187,-95 251,-157 47,43 96,86 144,107 -71,45 -151,89 -223,134l7 0c288,-108 420,-178 638,-447 35,-44 37,-41 90,-41 60,1 106,1 141,49 51,-8 78,-8 115,15 197,125 247,303 672,320zm-903 -170c-1,-15 -3,-31 -6,-40 -8,-19 -19,-33 -43,-18 -27,15 -200,126 -200,126 1,-11 122,-143 187,-202 25,-22 56,-48 82,-8 11,17 7,42 17,53 14,18 38,18 59,11 21,-7 58,-36 41,13 -12,34 -75,65 -110,80 -28,12 -24,15 -27,-15z"></path> </g> </g> </svg> 