<?xml version="1.0" encoding="UTF-8"?> <svg xmlns="http://www.w3.org/2000/svg" xmlns:xlink="http://www.w3.org/1999/xlink" xml:space="preserve" width="3.40657in" height="4.72441in" version="1.1" style="shape-rendering:geometricPrecision; text-rendering:geometricPrecision; image-rendering:optimizeQuality; fill-rule:evenodd; clip-rule:evenodd" viewBox="0 0 3407 4724"> <defs> <style type="text/css"> .fil3 {fill:#202124} .fil2 {fill:#C70626} .fil0 {fill:#FFD900} .fil4 {fill:white} .fil1 {fill:white} </style> </defs> <g id="Layer_x0020_1"> <metadata id="CorelCorpID_0Corel-Layer"></metadata> <g id="_952617136"> <path class="fil0" d="M3407 2695l0 -2695 -1704 0 -1703 0c0,1041 0,2088 0,3129l0 47c0,790 939,1203 1703,1548l0 -2807c667,56 1185,260 1704,778z"></path> <path class="fil1" d="M3407 3176c0,-161 0,-321 0,-481 -519,-518 -1037,-722 -1704,-778 0,936 0,1872 0,2807 765,-345 1704,-758 1704,-1548z"></path> <path class="fil2" d="M0 0l0 2557 283 -2007 1420 0 1420 0 284 2007 0 -2557c-1136,0 -2271,0 -3407,0z"></path> <path class="fil3" d="M0 2695l0 1 0 1 0 1 0 1 0 1 0 1 0 1 0 1 0 1 0 0 0 1 0 1 0 1 0 1 0 0 0 1 0 1 0 1 0 1 0 1 0 1 0 1 0 1 0 0 0 1 0 1 0 1 0 1 0 1 0 1 0 1 0 1 0 1 0 1 0 1 0 1 0 0 0 1 0 1 0 1 0 1 0 1 0 1 0 1 0 1 0 1 0 1 0 1 0 1 0 0 0 1 0 1 0 1 0 1 0 1 0 1 0 1 0 1 0 1 0 1 0 1 0 1 0 0 0 1 0 1 572 28 -28 79 -544 -1 0 3 0 3 0 4 0 3 0 4 0 3 0 3 0 4 0 3 0 3 0 3 0 1 0 3 0 3 0 4 0 3 0 4 0 3 0 3 0 4 0 3 0 3 0 4 0 3 0 3 0 3 0 1 0 3 0 4 0 3 0 3 0 4 0 3 0 3 0 4 0 3 0 3 0 4 0 3 0 3 0 2 0 2 0 3 0 4 0 3 0 3 0 4 0 3 0 3 0 4 0 3 0 3 0 4 0 3 0 4 0 1 0 2 0 3 0 4 0 3 0 3 0 4 0 3 0 3 0 4 0 3 0 4 0 3 583 -107 74 69 -657 148c2,181 53,343 141,489l0 -347 632 -182 70 65 -634 230 0 334c34,45 71,89 112,131l0 -266 683 -289 104 43 -700 349 0 247c41,37 85,73 131,108l0 -223 0 0 777 -395 104 43 -750 445 0 224c59,39 120,77 182,114l0 -201 751 -507 100 38 186 -76c16,14 40,31 58,43 26,18 54,37 75,64 11,15 14,22 16,27 -22,15 -47,34 -64,47 -6,4 -12,9 -18,13 -63,47 -47,86 -74,132 -65,-26 -124,-23 -179,-16l0 -234 -722 543 0 199c97,53 198,104 299,152l0 -195 423 -465 0 59c125,-16 176,-11 250,75 37,44 66,78 175,63 50,-7 91,0 123,14 28,12 50,29 66,46 4,4 8,9 11,13 -59,-9 -121,0 -173,24 -211,101 -288,62 -348,30 -35,-17 -66,-33 -104,-34l0 -170 -297 405 0 195c80,37 161,74 240,109l3 2 4 2 5 2 5 2 4 2 5 2 4 2 5 2 4 2 5 2 4 2 5 2 4 2c432,-195 982,-431 1339,-776l0 0c16,-15 32,-31 47,-47l0 0c68,-72 128,-148 177,-230l1 0c11,-18 21,-36 31,-54l-1 0c34,-65 60,-133 79,-204l1 0c1,0 12,-55 13,-60l0 0c10,-51 15,-104 16,-158l0 0c0,-7 1,-13 1,-19l0 0 0 0 0 -490 0 0 0 -9c-226,-249 -499,-436 -811,-572l-262 -742 -379 -134 0 -352 267 0 -519 -202 -518 202 267 0 0 352 -380 134 -277 786c-13,5 -26,10 -39,16l25 22 -36 102 -111 -69c0,0 0,0 0,0 -48,23 -94,48 -139,74l210 111 -30 84 -291 -126c0,0 0,0 0,0 -59,39 -114,80 -167,123 2,-1 4,-3 7,-5l412 120 -28 78 -481 -113c-45,41 -87,84 -127,129 0,0 0,0 0,0zm1703 1978l0 -105c56,-12 95,-30 133,-47 34,-17 67,-32 113,-38 11,17 25,37 44,57 -96,45 -193,89 -290,133zm355 -163c-22,-23 -37,-44 -49,-62 -11,-17 -21,-31 -33,-41 -17,-14 -22,-77 -26,-119 61,-4 139,-25 244,-75 28,-13 60,-19 93,-19 31,1 62,8 87,22 79,45 112,37 161,26 14,-3 28,-6 47,-8 -133,80 -267,150 -391,212 -44,21 -89,43 -133,64zm607 -328c-21,-5 -41,-8 -56,-8 -42,0 -70,6 -94,12 -29,6 -48,10 -97,-17 14,-36 47,-115 110,-113 207,7 220,-23 250,-86 5,-11 11,-24 20,-37 36,10 80,8 126,6 20,0 40,-1 59,0 -96,89 -205,170 -318,243zm374 -297c-38,-7 -79,-6 -119,-4 -59,2 -115,4 -127,-41 -13,-50 -61,-67 -102,-82 -14,-5 -26,-9 -30,-12 -28,-23 -40,-46 -41,-70 0,-22 10,-47 29,-73 30,3 49,10 68,18 46,18 91,36 222,15 59,-10 76,-1 91,8 27,15 52,30 127,18 17,-3 38,-2 60,0 -49,80 -110,154 -178,223zm210 -277c-53,-8 -73,0 -125,-1 -5,0 -10,0 -16,0 -3,-18 -9,-34 -15,-49 -11,-29 -20,-55 3,-90 105,-5 179,-57 226,-55 2,0 4,0 6,0 -11,41 -25,80 -42,120 -11,25 -24,50 -37,75zm93 -254c-7,1 -12,1 -17,0 -76,-2 -203,91 -270,43 -12,-9 -29,-21 -59,-35 -41,-20 -78,-24 -109,-25 20,-29 41,-50 55,-64 6,-6 10,-11 14,-16 51,-67 94,-63 131,-60 33,3 64,6 96,-14 66,-42 113,-25 161,-8 5,2 10,4 15,6 0,59 -6,117 -17,173zm17 -237c-57,-17 -134,-18 -207,14 -1,-12 0,-27 -2,-45 5,-1 30,-9 34,-11 36,-17 44,-39 53,-63 9,-25 20,-52 122,-61l0 166zm0 -225c-158,11 -177,60 -194,103 -4,13 -9,25 -19,30 -3,1 0,-29 0,-32 2,-38 4,-79 -24,-109 18,-11 37,-24 52,-38 10,-10 18,-20 24,-31 42,-3 84,1 123,4 13,1 26,2 38,3l0 70zm0 -129c-10,-1 -20,-2 -31,-3 -40,-3 -83,-6 -127,-4 -13,-26 -34,-38 -27,-77 6,-37 52,-61 97,-72 61,58 55,54 88,93l0 63zm-1401 768l255 -105c4,4 7,8 8,10 38,43 84,90 179,106 58,10 100,27 131,39 14,6 27,11 39,15 -16,27 -24,54 -24,80 -74,2 -94,10 -118,20 -10,4 -21,8 -44,12 -69,11 -87,5 -115,-4 -21,-7 -45,-15 -88,-22 -35,-6 -58,-8 -73,-10 -4,-8 -10,-20 -21,-35 -28,-37 -61,-59 -92,-80 -9,-6 -25,-17 -37,-26zm321 -132l149 -61 0 0c49,7 108,13 161,13 36,0 80,3 121,10 31,6 59,14 79,25 21,12 42,11 69,10 27,-1 62,-2 100,16 23,11 37,21 47,28 6,5 12,9 17,12 -28,49 -15,84 0,122 0,1 0,1 0,2 -22,-5 -52,-5 -98,2 -106,17 -140,4 -174,-10 -34,-13 -69,-27 -143,-24 -6,0 -21,-6 -42,-15 -36,-14 -83,-33 -149,-44 -60,-11 -95,-40 -123,-71 -3,-3 -9,-10 -14,-15zm204 -113l213 -199c9,2 19,6 24,8 75,28 130,48 239,-14 15,-8 54,-4 92,0 17,2 12,2 28,3 1,6 3,19 3,35 0,7 0,12 -2,19 -96,-9 -125,7 -188,89 0,1 -4,5 -10,10 -17,18 -46,49 -72,91 -25,-11 -53,-18 -83,-24 -47,-8 -98,-12 -138,-12 -35,0 -73,-2 -106,-6zm264 -247l130 -121 0 0c63,10 123,15 179,-3 18,15 17,47 15,76 0,11 -1,23 0,33 -3,0 -6,0 -9,-1 -53,-5 -107,-11 -146,11 -74,41 -112,27 -164,8l-5 -3zm114 -183l-20 -56c40,-59 85,-67 125,-118 28,10 59,12 90,8 14,-2 29,-5 43,-9 -7,72 59,86 17,128 -18,18 -47,34 -69,44 -4,2 -8,3 -10,4 -44,19 -110,10 -176,-1zm-46 -131l-1 -1 -71 -202c10,4 21,8 28,12 26,12 62,20 101,17 -6,32 0,60 44,99 -25,34 -82,61 -101,75zm-94 -267l-23 -66c45,-4 66,-31 88,-26 23,6 47,28 66,53 17,22 29,45 32,62 -9,6 -14,11 -26,13 -19,3 -33,-3 -49,-11 -22,-10 -49,-22 -88,-25zm-44 -124l-26 -72c12,-5 26,-11 36,-16 16,-9 29,-18 41,-28l130 72c-52,4 -104,10 -139,35 -9,6 -26,9 -42,9zm262 7l1 1 155 111c-7,3 -13,6 -18,9 -13,7 -25,13 -71,7 -20,-3 -37,-4 -50,-4 -7,-24 -21,-51 -40,-76 -11,-15 -24,-29 -39,-41 21,-2 43,-4 62,-7zm213 159l70 61 0 0c-3,1 -8,2 -10,3 -71,18 -112,61 -168,68 -19,3 -43,3 -60,-9 -41,-29 -56,-68 -37,-99 10,-1 24,0 46,3 76,10 99,-2 125,-16 6,-3 19,-8 34,-11zm-1449 1721c22,1 42,10 63,21 30,16 64,34 109,42 0,2 0,3 0,5 4,43 9,105 32,141 -42,9 -75,24 -109,40 -28,13 -57,26 -95,36l0 -285zm859 -486c-69,1 -83,6 -100,13 -14,6 -30,12 -63,17 -92,15 -118,6 -159,-7 -18,-6 -39,-13 -74,-19 -44,-7 -67,-8 -79,-9 -2,0 -3,0 -4,0 -23,15 -49,45 -76,66 -44,32 -36,71 -63,110 7,5 14,10 21,15 22,17 36,34 49,50 23,26 40,46 101,37 69,-9 126,1 171,20 39,17 69,40 90,62 28,-47 75,-95 155,-92 152,4 160,-12 177,-48 7,-16 16,-35 31,-56 -8,-12 -14,-25 -19,-43 -5,-20 -35,-31 -60,-39 -20,-8 -39,-14 -53,-26 -20,-17 -35,-34 -45,-51z"></path> <path class="fil0" d="M130 266l3 0c12,0 21,-3 26,-10 6,-7 9,-17 9,-31 0,-12 -3,-22 -8,-28 -6,-7 -14,-10 -24,-10 -2,0 -3,0 -4,0 -1,0 -2,0 -2,0l0 79zm0 151l5 0c12,0 22,-4 28,-12 6,-8 10,-20 10,-36 0,-14 -4,-25 -10,-32 -6,-7 -16,-10 -29,-10l-4 0 0 90zm-60 62l0 -349 64 0c20,0 34,1 42,3 9,2 16,6 22,11 9,7 16,17 21,30 5,12 7,27 7,44 0,15 -2,28 -6,40 -5,12 -12,23 -21,34 11,8 19,19 25,32 6,14 9,30 9,49 0,15 -2,30 -6,44 -4,14 -9,26 -16,36 -7,9 -15,16 -25,20 -10,4 -25,6 -45,6l-71 0zm253 -130l34 0 -17 -152 -17 152zm-74 130l56 -349 71 0 55 349 -60 0 -7 -67 -47 0 -8 67 -60 0zm198 -119l55 0 0 11c0,19 1,32 5,40 3,8 9,12 16,12 7,0 12,-3 15,-9 4,-6 6,-14 6,-24 0,-17 -9,-34 -27,-49 -3,-3 -5,-5 -6,-6 -1,-1 -2,-2 -3,-3 -24,-22 -39,-38 -45,-50 -4,-8 -8,-17 -10,-28 -2,-11 -3,-22 -3,-35 0,-30 6,-54 19,-71 13,-18 31,-26 54,-26 25,0 44,8 57,25 13,17 19,42 19,74 0,1 0,3 0,6 0,2 0,4 0,5l-54 0 0 -4c0,-15 -2,-27 -5,-34 -4,-8 -9,-12 -15,-12 -6,0 -11,3 -14,8 -4,6 -5,13 -5,22 0,15 9,30 29,47 4,3 6,5 8,7 2,1 4,3 7,6 21,18 34,33 40,46 3,8 6,17 8,27 2,10 3,21 3,33 0,35 -6,62 -20,81 -13,19 -32,28 -57,28 -26,0 -45,-9 -58,-27 -13,-18 -20,-45 -20,-81 0,-2 0,-4 0,-7 0,-2 0,-6 1,-12zm186 119l0 -349 60 0 0 132 48 0 0 -132 59 0 0 349 -59 0 0 -145 -48 0 0 145 -60 0zm209 0l0 -349 60 0 0 145 44 -145 62 0 -56 153 57 196 -63 0 -31 -126 -13 33 0 93 -60 0zm184 0l0 -349 60 0 0 349 -60 0zm157 -130l34 0 -17 -152 -17 152zm-74 130l56 -349 71 0 55 349 -60 0 -7 -67 -48 0 -7 67 -60 0zm454 -191l0 191 -41 0 -3 -22c-6,9 -12,16 -20,21 -7,4 -15,7 -24,7 -11,0 -20,-3 -29,-8 -9,-6 -17,-13 -23,-23 -8,-12 -14,-29 -17,-49 -4,-21 -5,-56 -5,-106 0,-35 1,-63 3,-84 2,-21 6,-37 11,-47 7,-16 16,-27 28,-35 12,-8 26,-11 42,-11 25,0 44,9 57,28 12,18 19,46 19,83 0,1 0,3 0,6 -1,3 -1,5 -1,7l-57 0 0 -4c0,-21 -1,-35 -4,-44 -3,-8 -9,-12 -16,-12 -8,0 -14,5 -17,15 -3,11 -5,36 -5,75l0 34 0 24c0,39 2,63 5,73 3,10 8,16 16,16 8,0 14,-5 18,-14 4,-9 6,-23 6,-43 0,-5 -1,-8 -1,-11 0,-2 0,-4 0,-7l-23 0 0 -60 81 0zm22 73l55 0c0,30 1,48 3,54 2,7 5,10 10,10 5,0 8,-2 10,-6 1,-5 2,-13 2,-27l0 -262 60 0 0 230c0,25 0,45 -2,57 -1,13 -3,23 -6,32 -6,12 -13,22 -23,28 -10,7 -22,10 -37,10 -26,0 -45,-8 -56,-25 -11,-16 -17,-44 -17,-83 0,-5 0,-8 0,-11 0,-2 1,-5 1,-7zm183 118l0 -349 59 0 0 349 -59 0zm160 -204c1,0 3,0 4,0 2,0 3,1 4,1 12,0 21,-4 26,-11 5,-6 8,-18 8,-34 0,-15 -3,-26 -8,-32 -5,-6 -14,-9 -26,-9 -1,0 -2,0 -4,0 -1,0 -3,0 -4,0l0 85zm-59 204l0 -349 67 0c22,0 38,1 48,4 10,3 18,8 25,14 7,9 12,19 16,31 4,11 5,26 5,42 0,20 -2,37 -7,51 -5,13 -13,24 -24,33 18,11 28,38 29,80 0,0 0,1 0,1 0,4 0,10 0,19 1,39 6,64 15,74l-70 0c-2,-8 -3,-15 -4,-23 0,-8 -1,-17 -1,-26 0,-5 0,-12 0,-20 1,-8 1,-13 1,-15 0,-22 -2,-36 -6,-44 -4,-8 -12,-12 -22,-12l-13 0 0 140 -59 0zm305 -143l0 -63c0,-39 -2,-63 -5,-72 -4,-9 -11,-14 -20,-14 -9,0 -16,5 -19,14 -4,10 -5,34 -5,72l0 63c0,38 1,61 5,71 3,9 10,14 19,14 10,0 16,-5 20,-14 3,-9 5,-33 5,-71zm-110 -32c0,-42 1,-72 3,-92 2,-19 6,-34 11,-45 7,-15 17,-27 29,-34 11,-8 26,-11 42,-11 17,0 31,3 43,11 12,7 21,19 29,34 5,11 9,26 11,46 2,19 3,49 3,91 0,42 -1,72 -3,92 -2,19 -6,35 -11,45 -8,16 -17,27 -29,35 -12,7 -26,11 -43,11 -16,0 -31,-4 -42,-11 -12,-8 -22,-19 -29,-35 -5,-10 -9,-25 -11,-45 -2,-19 -3,-50 -3,-92zm208 175l0 -349 60 0 0 145 44 -145 62 0 -56 153 57 196 -63 0 -31 -126 -13 33 0 93 -60 0zm246 -130l34 0 -17 -152 -17 152zm-74 130l56 -349 71 0 55 349 -60 0 -7 -67 -48 0 -7 67 -60 0zm198 -119l54 0 0 11c0,19 2,32 5,40 4,8 9,12 17,12 6,0 11,-3 15,-9 4,-6 6,-14 6,-24 0,-17 -9,-34 -27,-49 -3,-3 -5,-5 -7,-6 0,-1 -1,-2 -3,-3 -24,-22 -39,-38 -44,-50 -5,-8 -8,-17 -10,-28 -2,-11 -3,-22 -3,-35 0,-30 6,-54 19,-71 13,-18 31,-26 54,-26 24,0 43,8 56,25 13,17 20,42 20,74 0,1 0,3 0,6 0,2 -1,4 -1,5l-53 0 0 -4c0,-15 -2,-27 -6,-34 -3,-8 -8,-12 -15,-12 -5,0 -10,3 -13,8 -4,6 -6,13 -6,22 0,15 10,30 30,47 3,3 6,5 8,7 1,1 4,3 6,6 21,18 35,33 41,46 3,8 6,17 8,27 2,10 3,21 3,33 0,35 -7,62 -20,81 -13,19 -32,28 -57,28 -26,0 -46,-9 -59,-27 -13,-18 -19,-45 -19,-81 0,-2 0,-4 0,-7 0,-2 0,-6 1,-12zm218 119l0 -281 -49 0 0 -68 159 0 0 68 -51 0 0 281 -59 0zm362 -204c1,0 3,0 4,0 2,0 3,1 4,1 12,0 21,-4 26,-11 5,-6 8,-18 8,-34 0,-15 -3,-26 -8,-32 -5,-6 -14,-9 -26,-9 -1,0 -2,0 -4,0 -1,0 -3,0 -4,0l0 85zm-59 204l0 -349 68 0c22,0 38,1 48,4 10,3 18,8 24,14 7,9 13,19 16,31 4,11 6,26 6,42 0,20 -3,37 -8,51 -5,13 -13,24 -24,33 18,11 28,38 29,80 0,0 0,1 0,1 0,4 0,10 1,19 0,39 5,64 14,74l-70 0c-2,-8 -3,-15 -4,-23 0,-8 -1,-17 -1,-26 0,-5 0,-12 1,-20 0,-8 0,-13 0,-15 0,-22 -2,-36 -6,-44 -4,-8 -12,-12 -22,-12l-13 0 0 140 -59 0zm-168 0l0 -349 132 0 0 58 -84 0 0 81 78 0 0 55 -78 0 0 96 86 0 0 59 -134 0zm75 -383l0 -54 36 0 0 54 -36 0zm-57 0l0 -54 37 0 0 54 -37 0z"></path> <path class="fil4" d="M1509 1274l-27 0 0 266 0 4 -416 1780 637 264 637 -267 -415 -1777 -1 -4 0 -266 -26 0 0 -438 117 0 -312 -112 -311 112 117 0 0 438zm194 -389c34,0 64,11 86,28 21,17 35,41 35,67 0,26 -14,50 -35,67 -22,17 -52,28 -86,28 -33,0 -63,-11 -85,-28 -22,-17 -35,-41 -35,-67 0,-26 13,-50 35,-67 22,-17 52,-28 85,-28zm-6 80l6 -44 6 44 -4 9c3,1 6,3 6,6 0,1 -1,2 -1,3l14 7 43 40 -51 -33 -9 -12c-1,1 -2,1 -4,1 -4,0 -7,-3 -7,-6 0,-3 2,-5 5,-6l-4 -9zm78 -42c-18,-14 -44,-23 -72,-23 -28,0 -53,9 -72,23 -18,15 -30,35 -30,57 0,22 12,42 30,57 19,14 44,23 72,23 28,0 54,-9 72,-23 19,-15 30,-35 30,-57 0,-22 -11,-42 -30,-57zm67 1012l0 50 -278 0 0 -50c0,-188 278,-188 278,0zm-43 -465l0 35 -191 0 0 -35c0,-129 191,-129 191,0zm393 453c4,37 12,66 16,104 50,13 100,26 149,40 -13,-47 -26,-93 -39,-140 -20,-83 -139,-122 -126,-4zm-121 -453l4 76 117 40c-7,-37 -11,-62 -18,-100 -10,-66 -104,-110 -103,-16zm-286 -342l0 0c-26,0 -48,17 -48,37l0 109 95 0 0 -109c0,-20 -21,-37 -47,-37zm195 159l307 108 532 1508 -427 397 -412 -1762 0 -251zm-765 636c-4,37 -12,66 -16,104 -50,13 -100,26 -150,40 13,-47 27,-93 40,-140 20,-83 139,-122 126,-4zm121 -453l-5 76 -117 40c7,-37 12,-62 19,-100 9,-66 104,-110 103,-16zm286 -342l0 0c26,0 47,17 47,37l0 109 -94 0 0 -109c0,-20 21,-37 47,-37zm-196 159l-306 108 -532 1508 435 404 403 -1769 0 -251z"></path> <polygon class="fil3" points="323,588 3084,588 3089,628 317,628 "></polygon> </g> </g> </svg> 