<?xml version="1.0" encoding="UTF-8"?> <svg xmlns="http://www.w3.org/2000/svg" xmlns:xlink="http://www.w3.org/1999/xlink" xml:space="preserve" width="78.0848mm" height="140mm" version="1.1" style="shape-rendering:geometricPrecision; text-rendering:geometricPrecision; image-rendering:optimizeQuality; fill-rule:evenodd; clip-rule:evenodd" viewBox="0 0 7808 14000"> <defs> <style type="text/css"> .fil1 {fill:none} .fil3 {fill:#3B366C} .fil6 {fill:#818085} .fil4 {fill:#A38444} .fil5 {fill:#CDB650} .fil0 {fill:#D1382A} .fil2 {fill:white} </style> </defs> <g id="Layer_x0020_1"> <metadata id="CorelCorpID_0Corel-Layer"></metadata> <g id="_2066965136288"> <g> <path class="fil0" d="M0 4474c1272,0 2544,0 3817,0 0,3172 0,6344 0,9516 -1575,-1835 -3817,-393 -3817,-3219 0,-2146 0,-4151 0,-6297z"></path> <path class="fil1" d="M7809 4474c-1273,0 -2545,0 -3817,0 0,3172 0,6344 0,9516 1574,-1835 3817,-393 3817,-3219 0,-2146 0,-4151 0,-6297z"></path> <path class="fil2" d="M2757 8358l0 -149 -1570 0 0 149 1570 0zm-1010 2770c-3,10 -13,16 -23,14 -10,-2 -17,-12 -14,-22 15,-64 49,-118 95,-157 46,-38 105,-61 167,-61 62,0 121,23 167,61 46,39 81,93 96,157 2,10 -5,20 -15,22 -10,2 -20,-4 -22,-14 -13,-56 -43,-103 -83,-137 -35,-29 -78,-47 -124,-51l0 53c89,9 161,82 161,173l0 155 472 0 0 -2931 -1304 0 0 2931 472 0 0 -155c0,-91 72,-164 161,-173l0 -53c-46,4 -88,22 -123,51 -40,34 -70,81 -83,137zm367 38c0,-77 -66,-137 -142,-137 -76,0 -142,60 -142,137 0,122 0,233 0,355l284 0c0,-122 0,-233 0,-355zm-322 187l-568 0 0 265c499,0 998,0 1497,0l0 -265 -569 0 0 205 -360 0 0 -205zm76 -3176l208 0 0 -243c0,-56 -48,-101 -104,-101 -56,0 -104,44 -104,101l0 243zm241 0l515 0 0 -523 -1304 0 0 523 515 0 0 -243c0,-74 64,-132 137,-132 74,0 137,58 137,132l0 243zm-587 -2177l228 0 0 604 -228 0 0 -604zm672 0l228 0 0 604 -228 0 0 -604zm-336 0l228 0 0 604 -228 0 0 -604zm205 996c8,-6 20,-5 27,2 6,8 5,20 -2,26l-88 74 121 124c7,7 7,19 -1,26 -7,7 -19,6 -27,-1l-135 -139c-7,-7 -6,-19 2,-26l103 -86zm-91 -191c-162,0 -300,127 -300,291 0,164 138,291 300,291 162,0 300,-127 300,-291 0,-164 -138,-291 -300,-291zm683 742l0 76c-455,0 -911,0 -1366,0l0 -76c455,0 911,0 1366,0zm-84 -871l0 405 -278 0c-3,-65 -26,-125 -64,-173l301 -232 41 0zm0 426l0 414 -29 0 -309 -238c37,-49 59,-110 61,-176l277 0zm-64 414l-524 0 0 -108c91,-3 178,-43 237,-113l287 221zm-546 0l-524 0 287 -221c60,70 146,110 237,113l0 108zm-559 0l-28 0 0 -414 276 0c2,66 24,127 61,176l-309 238zm-28 -435l0 -405 40 0 301 232c-37,48 -61,108 -64,173l-277 0zm75 -405l512 0 0 108c-89,3 -173,41 -232,107l-280 -215zm534 0l512 0 -280 215c-59,-66 -143,-104 -232,-107l0 -108zm618 -784l0 108 -85 0 0 645 -1088 0 0 -645 -85 0 0 -108 1258 0zm-629 -825l491 793 -982 0 491 -793z"></path> <path class="fil3" d="M7809 4474c-1273,0 -2545,0 -3817,0 0,3172 0,6344 0,9516 1574,-1835 3817,-393 3817,-3219 0,-2146 0,-4151 0,-6297z"></path> <polygon class="fil0" points="7809,7160 7809,8128 3992,10480 3992,9512 "></polygon> <polygon class="fil2" points="4879,9127 4965,9258 5103,9179 5069,9331 5223,9369 5089,9453 5170,9587 5014,9553 4974,9703 4888,9572 4750,9651 4784,9500 4629,9461 4764,9377 4683,9244 4839,9277 "></polygon> <polygon class="fil2" points="6854,7910 6940,8041 7077,7962 7043,8114 7198,8153 7063,8236 7144,8370 6988,8336 6948,8487 6862,8356 6724,8435 6759,8283 6604,8244 6739,8161 6657,8027 6814,8060 "></polygon> <path class="fil2" d="M5506 9608c11,70 27,155 -17,201 -109,97 -173,127 -276,191 -30,19 -38,-40 -129,-41 -53,0 -109,56 -99,85 4,9 41,1 51,8 10,9 6,12 -1,14 -67,17 -107,80 -88,108 8,13 33,-13 55,-13 31,0 53,-7 23,29 -70,81 32,121 53,110 10,-6 0,-46 9,-69 4,-12 1,-20 10,-21 48,-3 -14,83 82,94 59,6 2,-125 75,-162 142,-71 325,-203 458,-215 35,-3 89,-34 89,-68 0,-115 1,-230 1,-346 22,-19 59,-44 104,-68 81,-44 189,-14 124,76 -160,219 -191,549 -101,701 93,155 312,267 293,461 -5,56 -49,260 -157,347 -39,23 -26,-20 -72,-34 -30,-9 -63,-6 -86,9 -24,14 41,68 39,68 -71,-3 -52,-48 -102,-34 -122,70 26,53 14,85 -2,7 -36,-9 -79,-3 -41,6 -51,110 30,100 17,-2 39,-4 57,-5 29,-2 46,4 28,35 -8,15 -41,17 -47,29 -9,17 12,44 34,60 23,17 67,17 87,1 32,-23 37,-73 60,-73 47,-1 135,-51 208,-138 88,-104 163,-255 220,-350 48,-81 132,-83 139,-175 3,-40 -14,-82 -35,-103 -74,-73 -206,-207 -140,-317 46,-78 368,-263 376,-564 50,52 104,97 158,120 127,55 251,30 341,-38 40,-31 74,-71 97,-117 23,-45 35,-97 34,-151 -2,-123 -73,-257 -251,-357 -71,-40 -138,-111 -177,-230 -14,-41 -25,-87 -31,-140l-157 97c7,33 15,65 25,94 55,165 151,265 254,323 118,66 165,145 167,215 0,28 -6,54 -18,77 -12,23 -28,43 -49,59 -43,32 -103,43 -166,16 -68,-29 -153,-134 -218,-220 11,-201 -104,-337 -192,-443l-1107 682zm360 -2755c66,41 16,127 -50,85 -57,-36 -110,-39 -168,-42 -276,-15 -376,-184 -373,-441 55,188 146,346 363,357 74,4 145,-12 228,41zm1161 244c-85,148 -123,327 -48,530l148 -91c-37,-118 -46,-308 8,-352 213,21 359,-90 359,-274 0,-12 -2,-110 -45,-62 -8,9 -85,90 -85,72 0,-19 97,-116 101,-226 13,-240 -28,-109 -157,-19 -90,64 -198,115 -253,183 -38,47 -49,142 -28,239zm-339 692c37,-122 54,-242 61,-430 2,-64 47,-66 48,-91 1,-33 -39,-53 -36,-98 2,-31 33,-60 34,-91 1,-33 -24,-70 -29,-102 -9,-63 42,-116 16,-195 -20,-60 -92,-52 -114,-116 -25,-71 -4,-118 -54,-170 -70,-71 -162,-93 -200,-165 -80,-155 -149,-129 -151,-69 -2,42 14,124 -13,131 -9,3 -44,-13 -74,-81 -21,-50 -62,-92 -91,-73 -15,10 -15,18 -1,80 9,39 1,86 -50,86 -67,0 -172,48 -195,111 -26,70 -122,-94 -224,-5 -116,103 -122,-46 -157,-47 -79,-2 -60,88 -33,145 41,89 132,132 189,148 45,12 89,10 128,15 77,12 101,22 144,50 62,39 79,141 -27,165 -37,8 -94,-25 -162,-33 -31,-3 -64,5 -81,0 -28,-9 -49,-33 -66,-33 -34,-12 -53,80 49,93 50,6 13,136 102,136 58,-1 64,-19 82,-51 21,-38 61,-52 104,-52 40,0 53,61 94,61 114,-1 149,9 148,57 0,22 -25,31 -61,42 -90,26 -194,69 -276,111 -94,48 -188,123 -300,237 -80,81 -96,218 -172,252 -27,12 -141,-28 -173,-41 -78,-33 -157,-98 -301,-300 -32,-46 -83,-101 -100,-147 -34,-90 -25,-165 -90,-177 -40,-7 -46,37 -84,47 -24,6 -56,-35 -72,11 -9,26 13,57 7,82 -4,15 -12,22 -19,26 -41,26 -15,56 13,55 17,0 39,-8 55,7 19,18 -20,64 -9,81 23,34 77,-18 98,11 40,57 141,269 211,429 71,162 126,193 360,219 166,20 46,260 -240,375 -108,44 -269,56 -404,52 -63,-2 -110,-14 -145,-52 -32,-34 -99,-29 -120,18 -8,18 -1,33 -9,53 -7,16 -42,27 -47,51 -11,51 43,37 70,73 21,28 -6,102 46,102 28,0 40,-43 58,-45 26,-1 54,52 86,20 13,-13 -12,-57 32,-60 263,-23 493,37 668,2l1477 -910zm-686 -1243c45,6 51,28 51,41 0,18 -30,31 -56,26 -90,-17 -39,-72 5,-67z"></path> <g> <path class="fil4" d="M4452 6714c-1,0 -1,0 -1,0 -1,-32 -17,-60 -53,-63 -10,-1 -20,1 -30,4 -33,14 -44,61 -48,92 -2,15 -7,15 -17,5 -32,-32 -60,-73 -67,-119 -17,-124 122,-196 223,-96 6,6 11,12 16,18 -12,-35 -20,-71 -21,-108 -3,-80 32,-150 83,-210 3,-3 7,-9 12,-9 5,0 9,6 11,9 51,60 86,130 83,210 -1,37 -9,73 -20,108 4,-6 10,-12 15,-18 101,-100 241,-28 223,96 -7,46 -34,87 -67,119 -10,10 -15,10 -17,-5 -4,-31 -15,-78 -48,-92 -10,-3 -20,-5 -30,-4 -36,3 -52,31 -53,63 0,0 0,0 0,0 13,4 23,15 23,29 0,13 -10,24 -22,28 0,0 0,0 0,0 1,4 1,8 2,12 7,-4 15,-6 23,-7 10,0 20,4 27,11 26,27 8,79 -33,80 -21,0 -37,-11 -49,-26 -22,-27 -27,-55 -31,-66 0,16 10,52 24,71 -24,18 -47,50 -52,80 -1,10 -2,17 -9,19 -8,-2 -9,-9 -10,-19 -5,-30 -28,-62 -52,-80 14,-19 24,-55 24,-71 -3,11 -9,39 -31,66 -12,15 -28,26 -49,26 -41,-1 -59,-53 -33,-80 7,-7 17,-11 27,-11 9,1 16,3 23,7 1,-4 2,-8 2,-12 0,0 0,0 0,0 -12,-4 -21,-15 -21,-28 0,-14 9,-25 23,-29z"></path> <path class="fil5" d="M4524 6714l25 0 24 0c0,-86 57,-166 60,-268 2,-65 -21,-135 -84,-207 -64,72 -87,142 -85,207 3,102 60,182 60,268zm25 58l28 0c4,29 7,42 22,71 -25,20 -46,52 -50,81 -5,-29 -26,-61 -51,-81 15,-29 18,-42 22,-71l29 0zm0 -9l89 0c11,0 20,-9 20,-20 0,-11 -9,-20 -20,-20l-89 0 -90 0c-11,0 -20,9 -20,20 0,11 9,20 20,20l90 0zm44 9c13,0 31,0 44,0 1,9 4,19 8,28 18,-20 38,-15 47,-6 20,21 6,63 -26,63 -23,1 -39,-17 -51,-34 -10,-15 -17,-31 -22,-51zm43 -58c-7,0 -42,0 -49,0 0,-67 17,-128 58,-170 128,-127 303,39 142,201 -5,-43 -21,-85 -54,-99 -40,-16 -95,2 -97,68zm-132 58c-13,0 -31,0 -44,0 -1,9 -4,19 -8,28 -18,-20 -38,-15 -46,-6 -21,21 -7,63 25,63 23,1 39,-17 51,-34 10,-15 17,-31 22,-51zm-42 -58c7,0 41,0 49,0 0,-67 -18,-128 -59,-170 -128,-127 -303,39 -142,201 5,-43 21,-85 54,-99 40,-16 95,2 98,68z"></path> </g> </g> <path class="fil6" d="M771 3933l-72 -269c143,-48 294,-94 452,-135l59 278c-155,38 -301,80 -438,125l-1 1zm6267 0l71 -269c-143,-48 -294,-94 -451,-135l-59 278c154,38 301,80 438,125l1 1zm-441 -420c-149,-38 -304,-73 -464,-105l-49 287c158,29 309,62 454,97l59 -279zm-526 -117c-144,-28 -293,-53 -445,-75l-35 296c148,20 292,42 432,67l48 -288zm-507 -84c-149,-20 -301,-38 -455,-53l-26 301c152,14 301,30 446,49l35 -297zm-518 -59c-138,-13 -279,-24 -422,-32l0 306c134,7 267,16 397,27l25 -301zm2079 351l74 -278c-67,-23 -136,-46 -206,-67l-65 281c67,21 133,42 197,64zm-192 -364c-146,-44 -298,-85 -455,-123l-51 290c152,35 300,74 441,115l65 -282zm-517 -137c-152,-36 -309,-68 -470,-97l-34 297c156,27 307,57 453,90l51 -290zm-532 -108c-151,-26 -305,-49 -462,-69l-22 301c154,19 304,41 450,66l34 -298zm-524 -77c-150,-18 -303,-34 -458,-47l-18 305c154,12 305,27 454,44l22 -302zm-521 -52c-75,-5 -152,-10 -229,-15 9,45 14,92 14,140l0 167c66,4 132,8 197,13l18 -305zm2377 399l75 -281c-156,-55 -318,-105 -486,-152l-61 289c164,44 321,93 472,144zm-472 -450c-158,-43 -322,-82 -491,-118l-50 295c166,34 326,71 480,112l61 -289zm-552 -131c-157,-32 -318,-61 -482,-86l-35 300c159,24 315,51 467,81l50 -295zm-545 -96c-156,-23 -315,-44 -477,-61l-26 304c160,16 316,35 469,57l34 -300zm-540 -67c-230,-23 -465,-40 -705,-50 3,4 7,8 11,11 84,84 147,189 182,305 165,10 327,22 487,37l25 -303zm2200 402l2 -8 138 -168c-1122,-373 -2363,-526 -3543,-526 -1179,0 -2420,153 -3543,526l138 168 3 8c840,-293 1867,-480 2984,-517 122,-88 268,-135 418,-135 151,0 296,47 418,135 1118,37 2144,224 2985,517zm-2961 100l0 492c72,2 144,5 215,9l0 -533c0,-181 -74,-345 -193,-464 -256,-256 -672,-256 -928,0 -119,119 -193,283 -193,464l0 533c72,-4 143,-7 216,-9l0 -492c0,-622 883,-622 883,0zm2703 1285l86 -276c-39,-14 -78,-27 -117,-40 -963,-315 -2105,-421 -3114,-421 -1008,0 -2150,106 -3113,421 -40,13 -79,26 -117,40l86 276c1779,-594 4509,-594 6289,0zm439 -1614l115 -362c-80,-27 -161,-54 -243,-79 -22,68 -41,136 -65,203 -135,-41 -272,-77 -409,-113 17,-70 31,-139 43,-212 -74,-19 -148,-37 -223,-52 -15,69 -32,138 -47,207 -131,-30 -264,-56 -396,-81 5,-73 9,-146 18,-219 -70,-13 -141,-26 -212,-38 -7,72 -19,144 -27,217 -138,-24 -275,-44 -413,-63 -1,-74 5,-149 4,-221 -69,-9 -139,-18 -209,-26 -6,73 -10,146 -17,220 -144,-17 -288,-31 -433,-42 -2,-74 -4,-148 -5,-222 -63,-5 -127,-10 -191,-14 -5,73 -6,146 -11,219 -140,-9 -281,-14 -422,-18 -1,-73 -2,-146 -3,-218 -70,-4 -130,-8 -199,-8 0,74 -2,147 -3,221 -75,-1 -160,-1 -236,-1 -75,0 -160,0 -236,1 0,-74 -2,-147 -3,-221 -69,0 -129,4 -198,8 -2,72 -3,145 -4,218 -141,4 -281,9 -422,18 -4,-73 -6,-146 -10,-219 -64,4 -128,9 -192,14 -1,74 -3,148 -5,222 -144,11 -288,25 -433,42 -6,-74 -11,-147 -17,-220 -70,8 -139,17 -208,26 -2,72 4,147 4,221 -138,19 -276,39 -413,63 -9,-73 -20,-145 -27,-217 -71,12 -142,25 -212,38 8,73 13,146 18,219 -133,25 -265,51 -397,81 -15,-69 -31,-138 -46,-207 -76,15 -149,33 -223,52 11,73 25,142 43,212 -138,36 -274,72 -410,113 -23,-67 -42,-135 -64,-203 -83,25 -164,52 -243,79l115 362c1134,-380 2391,-536 3583,-536 1193,0 2450,156 3584,536zm-105 -785c-455,-137 -944,-247 -1458,-328l-74 489c45,7 90,14 136,22l25 -218c115,19 228,40 341,62 -12,76 -18,139 -24,218 95,18 189,36 283,57 16,-71 31,-139 43,-210 118,26 234,55 348,85 -14,70 -26,143 -42,212 98,26 198,52 295,81 48,-152 87,-315 127,-470zm-2672 -459c-189,-11 -378,-18 -567,-22l0 281c87,1 170,3 259,6 1,74 3,148 4,222 111,3 193,6 301,12 9,-170 6,-329 3,-499zm-630 -23c-59,-1 -118,-1 -177,-1 -59,0 -118,0 -177,1l0 281c1,74 2,148 3,222 55,-1 119,-1 174,-1 55,0 119,0 174,1 1,-74 2,-148 3,-222l0 -281zm-429 1c-185,4 -370,11 -554,22 -3,170 -6,329 2,499 108,-6 190,-9 302,-12 1,-74 2,-148 3,-222 85,-3 164,-5 247,-6l0 -281zm3747 421l70 -272c-102,-31 -205,-60 -310,-89l-57 276c101,27 199,55 297,85zm-539 -437c-84,-20 -170,-39 -256,-58l-47 280c83,17 165,36 246,55l57 -277zm-558 -119c-107,-20 -215,-39 -324,-56l-43 282c108,17 214,35 320,54l47 -280zm-1598 -195c-87,-5 -174,-9 -261,-13l0 289c89,3 178,8 266,13l-5 -289zm-506 -20c-57,-1 -114,-2 -171,-3l0 289c57,0 114,1 171,2l0 -288zm3287 439l75 -290c-230,-71 -468,-135 -712,-192l-55 297c27,6 53,12 80,19l11 -58c17,-83 99,-137 182,-120l0 0c83,17 137,99 120,182l-15 72c106,28 211,58 314,90zm-698 -496c-245,-56 -496,-105 -754,-147l-46 300c110,18 218,37 326,57l9 -52c14,-83 94,-140 177,-126l0 0c84,14 140,94 126,178l-10 61c39,8 78,17 117,26l55 -297zm-2090 -293c-183,-11 -368,-19 -553,-22l0 308c18,0 36,1 54,1l0 -46c0,-67 55,-122 123,-122l0 0c67,0 122,55 122,122l0 54c87,3 173,7 260,12l-6 -307zm-616 -23c-59,0 -118,0 -177,0 -58,0 -117,0 -177,0l0 308c19,0 37,0 55,0l0 -56c0,-67 55,-122 122,-122 68,0 123,55 123,122l0 56c18,0 36,0 54,0l0 -308zm3499 462l89 -142c-521,-161 -1078,-290 -1662,-381l24 166c543,88 1062,208 1549,357zm-2735 -652c-311,-21 -629,-34 -941,-32 -311,-2 -630,11 -941,32l116 152c273,-17 552,-27 825,-25 274,-2 553,8 826,25l115 -152zm2859 455l1 -2 104 -432c-108,-31 -215,-60 -323,-88l-48 211c-138,-39 -263,-68 -415,-100l39 -210c-84,-18 -168,-36 -252,-52l-29 206c-141,-26 -267,-43 -421,-62l24 -219c-104,-17 -208,-32 -312,-46l-64 404c596,93 1164,225 1696,390zm-2818 -934c-54,-2 -108,-5 -161,-7l0 232 -271 -14 0 -235c-65,-1 -130,-3 -195,-3l0 222 -271 -15 0 -216c-28,0 -56,0 -84,1 -28,-1 -56,-1 -84,-1l0 216 -270 15 0 -222c-65,0 -131,2 -196,3l0 235 -270 14 0 -232c-54,2 -108,5 -161,7l18 417c318,-22 645,-35 963,-33 319,-2 645,11 963,33l19 -417zm-3674 3477c148,-38 303,-73 463,-105l49 287c-157,29 -309,62 -453,97l-59 -279zm525 -117c145,-28 293,-53 446,-75l34 296c-148,20 -292,42 -431,67l-49 -288zm508 -84c148,-20 300,-38 455,-53l25 301c-152,14 -301,30 -446,49l-34 -297zm517 -59c139,-13 280,-24 422,-32l0 306c-134,7 -266,16 -396,27l-26 -301zm-2079 351l-74 -278c67,-23 136,-46 206,-67l66 281c-68,21 -134,42 -198,64zm193 -364c146,-44 298,-85 455,-123l51 290c-153,35 -300,74 -441,115l-65 -282zm516 -137c153,-36 310,-68 471,-97l33 297c-155,27 -307,57 -453,90l-51 -290zm533 -108c150,-26 304,-49 461,-69l23 301c-154,19 -304,41 -451,66l-33 -298zm524 -77c150,-18 302,-34 458,-47l18 305c-154,12 -306,27 -454,44l-22 -302zm520 -52c76,-5 152,-10 229,-15 -9,45 -14,92 -14,140l0 167c-66,4 -131,8 -197,13l-18 -305zm-2376 399l-75 -281c155,-55 318,-105 486,-152l61 289c-164,44 -322,93 -472,144zm471 -450c159,-43 323,-82 491,-118l50 295c-165,34 -325,71 -480,112l-61 -289zm553 -131c157,-32 318,-61 482,-86l35 300c-160,24 -316,51 -467,81l-50 -295zm544 -96c156,-23 316,-44 478,-61l25 304c-159,16 -315,35 -468,57l-35 -300zm540 -67c230,-23 466,-40 706,-50 -4,4 -7,8 -11,11 -84,84 -148,189 -182,305 -165,10 -328,22 -487,37l-26 -303zm-2276 -612c456,-137 944,-247 1458,-328l75 489c-46,7 -91,14 -136,22l-25 -218c-115,19 -229,40 -341,62 11,76 18,139 23,218 -94,18 -188,36 -282,57 -16,-71 -31,-139 -44,-210 -118,26 -234,55 -347,85 14,70 25,143 41,212 -97,26 -197,52 -294,81 -49,-152 -88,-315 -128,-470zm-15 -60l-71 -272c102,-31 206,-60 311,-89l56 276c-100,27 -199,55 -296,85zm539 -437c84,-20 169,-39 255,-58l48 280c-83,17 -165,36 -247,55l-56 -277zm557 -119c107,-20 215,-39 325,-56l43 282c-108,17 -215,35 -320,54l-48 -280zm1598 -195c87,-5 174,-9 261,-13l0 289c-88,3 -177,8 -266,13l5 -289zm506 -20c57,-1 115,-2 172,-3l0 289c-57,0 -115,1 -172,2l0 -288zm-3286 439l-75 -290c230,-71 467,-135 711,-192l55 297c-26,6 -53,12 -79,19l-12 -58c-17,-83 -99,-137 -182,-120l0 0c-83,17 -137,99 -120,182l15 72c-106,28 -210,58 -313,90zm697 -496c245,-56 497,-105 754,-147l46 300c-110,18 -218,37 -325,57l-9 -52c-14,-83 -94,-140 -178,-126l0 0c-83,14 -140,94 -126,178l11 61c-40,8 -79,17 -117,26l-56 -297zm2091 -293c182,-11 368,-19 553,-22l0 308c-19,0 -37,1 -55,1l0 -46c0,-67 -55,-122 -122,-122l0 0c-68,0 -123,55 -123,122l0 54c-86,3 -173,7 -259,12l6 -307zm-2883 439l-90 -142c522,-161 1079,-290 1662,-381l-24 166c-543,88 -1062,208 -1548,357zm-124 -197l-1 -2 -104 -432c107,-31 215,-60 323,-88l47 211c139,-39 264,-68 415,-100l-39 -210c84,-18 168,-36 253,-52l29 206c141,-26 267,-43 420,-62l-23 -219c104,-17 207,-32 311,-46l65 404c-596,93 -1165,225 -1696,390z"></path> </g> </g> </svg> 